<svg width="251" height="199" viewBox="0 0 251 199" fill="none" xmlns="http://www.w3.org/2000/svg">
<path d="M87.811 47.455C88.45 47.478 89.087 46.819 89.382 47.843C89.987 51.065 87.847 53.653 88.454 56.877C88.797 56.951 89.14 57.0309 89.484 57.1089C89.045 59.6029 88.47 62.201 87.985 64.853C88.135 69.738 88.378 74.598 88.726 79.438C89.102 79.312 89.449 79.2529 89.586 79.7339C89.862 81.7469 89.5 84.535 89.392 87.424C89.453 87.851 89.514 88.278 89.571 88.697C89.795 89.025 90.156 89.11 90.378 89.163C90.343 90.469 90.245 91.63 90.134 92.706C92.165 106.887 94.551 121.286 96.909 136.892C97.859 140.192 98.809 143.494 99.244 146.674C99.639 151.385 98.965 157.397 98.847 161.991C102.49 161.287 104.273 172.485 107.955 170.25C107.876 173.311 107.755 177.909 108.786 178.146C111.875 178.858 115.439 181.214 117.3 189.346C117.735 192.529 116.435 197.417 117.06 198.539C118.05 200.306 119.239 194.413 120.229 196.18C121.346 172.526 120.007 149.749 120.037 125.933C118.422 117.826 117.713 63.145 118.428 49.102C118.412 48.675 118.4 48.251 118.382 47.826C118.582 40.164 118.305 30.859 116.919 24.374C116.062 21.4 115.019 18.376 114.014 15.365C113.414 16.765 112.813 18.062 112.221 19.186C112.3 16.12 112.379 13.057 111.72 11.88C110.162 5.354 108.34 9.05097 105.859 11.561C104.774 13.367 103.109 10.925 102.003 13.753C102.055 11.715 102.081 10.694 102.136 8.64697C101.104 8.41297 102.663 14.937 100.973 13.519C101.368 11.554 100.737 9.35396 100.79 7.31396C99.39 8.01997 100.262 14.384 98.887 14.069C98.568 12.967 100.762 8.334 99.046 7.94C98.701 7.862 98.65 9.90399 98.623 10.925C98.096 4.63999 96.459 1.177 94.585 6.914C94.637 4.922 95.365 2.107 95.129 0C95.119 0.002 95.111 0.0109912 95.101 0.0159912C95.043 1.06699 94.688 2.87998 94.664 3.84998C94.694 2.65698 94.726 1.45898 94.756 0.263977C94.515 0.451977 94.277 0.664954 94.04 0.889954C93.829 1.78295 93.658 2.68 93.633 3.612C93.655 2.82 93.675 2.02598 93.695 1.22998C93.136 1.82498 92.594 2.50897 92.088 3.25897C90.98 6.08797 89.356 8.79798 89.315 10.329C88.501 22.69 87.925 35.105 87.811 47.455Z" fill="#D8CCEA"/>
<path d="M133.571 47.455C134.21 47.478 134.847 46.819 135.142 47.843C135.747 51.065 133.607 53.653 134.214 56.877C134.557 56.951 134.9 57.0309 135.244 57.1089C134.805 59.6029 134.23 62.201 133.745 64.853C133.895 69.738 134.138 74.598 134.485 79.438C134.861 79.312 135.208 79.2529 135.346 79.7339C135.622 81.7469 135.259 84.535 135.152 87.424C135.213 87.851 135.274 88.278 135.331 88.697C135.555 89.025 135.916 89.11 136.138 89.163C136.103 90.469 136.005 91.63 135.894 92.706C137.925 106.887 140.311 121.286 142.669 136.892C143.619 140.192 144.569 143.494 145.004 146.674C145.399 151.385 144.725 157.397 144.607 161.991C148.25 161.287 150.033 172.485 153.715 170.25C153.636 173.311 153.515 177.909 154.546 178.146C157.635 178.858 161.199 181.214 163.06 189.346C163.495 192.529 162.195 197.417 162.82 198.539C163.81 200.306 164.999 194.413 165.989 196.18C167.107 172.526 165.767 149.749 165.797 125.933C164.182 117.826 163.473 63.145 164.187 49.102C164.172 48.675 164.159 48.251 164.141 47.826C164.341 40.164 164.064 30.859 162.678 24.374C161.821 21.4 160.778 18.376 159.773 15.365C159.173 16.765 158.572 18.062 157.98 19.186C158.059 16.12 158.138 13.057 157.48 11.88C155.922 5.354 154.1 9.05097 151.619 11.561C150.534 13.367 148.87 10.925 147.763 13.753C147.815 11.715 147.841 10.694 147.896 8.64697C146.864 8.41297 148.423 14.937 146.733 13.519C147.128 11.554 146.497 9.35396 146.55 7.31396C145.15 8.01997 146.022 14.384 144.647 14.069C144.328 12.967 146.522 8.334 144.806 7.94C144.461 7.862 144.41 9.90399 144.383 10.925C143.856 4.63999 142.219 1.177 140.345 6.914C140.397 4.922 141.125 2.107 140.889 0C140.879 0.002 140.871 0.0109912 140.861 0.0159912C140.803 1.06699 140.448 2.87998 140.424 3.84998C140.454 2.65698 140.486 1.45898 140.516 0.263977C140.275 0.451977 140.037 0.664954 139.8 0.889954C139.589 1.78295 139.418 2.68 139.393 3.612C139.414 2.82 139.435 2.02598 139.455 1.22998C138.896 1.82498 138.354 2.50897 137.849 3.25897C136.741 6.08797 135.116 8.79798 135.076 10.329C134.26 22.69 133.685 35.105 133.571 47.455Z" fill="#D8CCEA"/>
<path d="M60.446 66.654C55.978 71.775 48.357 72.302 43.101 67.966C40.604 65.601 38.896 62.841 38.896 59.818C38.896 58.111 34.691 59.032 29.304 67.177V93.325C29.304 100.552 29.961 105.809 34.691 107.125V108.174H1.84V107.125C6.834 105.677 6.965 100.029 6.965 93.325V61.266C6.965 56.667 5.388 54.825 0 52.854V51.805L29.303 46.285V64.68C38.632 50.621 42.573 49.045 46.516 47.207C50.195 45.496 55.715 46.286 59.131 49.309C64.256 53.775 64.913 61.66 60.446 66.654Z" fill="#272525"/>
<path d="M133.234 77.822C133.234 95.036 122.853 109.359 99.333 109.359C75.812 109.359 65.431 95.036 65.431 77.822C65.431 60.476 75.812 46.285 99.333 46.285C122.853 46.285 133.234 60.476 133.234 77.822ZM106.561 77.822C106.561 54.039 106.429 47.47 99.334 47.47C92.107 47.47 91.975 54.039 91.975 77.822C91.975 101.605 92.107 108.174 99.334 108.174C106.429 108.174 106.561 101.605 106.561 77.822Z" fill="#272525"/>
<path d="M181.582 102.263C181.582 102.263 176.588 109.358 161.346 109.358C145.447 109.358 137.957 104.891 137.957 104.891V87.677H139.139C141.767 99.898 152.674 108.174 161.346 108.174C170.676 108.174 172.778 97.27 162.792 90.701L149.52 82.684C137.169 74.536 133.883 61.529 141.899 52.591C141.899 52.591 146.761 46.285 161.741 46.285C176.852 46.285 183.159 49.962 183.159 49.962V63.367H181.976C179.611 51.541 169.362 47.469 161.741 47.469C153.2 47.469 149.127 56.008 160.559 63.235L173.831 71.515C185.787 78.739 188.809 93.588 181.582 102.263Z" fill="#272525"/>
<path d="M250.823 76.505H215.082C215.082 96.479 221.39 101.736 230.193 103.706C236.763 105.154 245.567 101.209 248.195 90.042L249.377 90.305C247.669 100.029 238.077 109.358 221.651 109.358C204.438 109.358 190.509 95.69 190.509 77.953C190.509 55.614 207.46 46.285 223.622 46.285C237.553 46.285 250.823 51.805 250.823 76.505ZM229.669 15.67L250.955 22.239L211.01 37.088H200.235L229.669 15.67ZM231.771 75.325C231.771 58.769 230.063 47.47 224.15 47.47C218.106 47.47 215.083 62.71 215.083 75.325H231.771Z" fill="#272525"/>
<path d="M35.81 121.11H42.651C44.251 121.11 45.526 121.501 46.475 122.278C47.425 123.055 47.899 124.043 47.899 125.239C47.899 127.016 46.86 128.221 44.782 128.851C45.843 128.999 46.688 129.439 47.316 130.171C47.944 130.903 48.258 131.763 48.258 132.75C48.258 134.009 47.798 135.004 46.879 135.745C45.96 136.485 44.677 136.855 43.032 136.855H35.81V121.11ZM39.645 124.027V127.437H42.157C42.709 127.437 43.154 127.297 43.491 127.009C43.828 126.725 43.996 126.306 43.996 125.742C43.996 125.183 43.829 124.755 43.491 124.463C43.155 124.175 42.709 124.027 42.157 124.027H39.645ZM39.645 133.939H42.538C43.061 133.939 43.495 133.783 43.84 133.47C44.184 133.157 44.355 132.722 44.355 132.17C44.355 131.615 44.19 131.175 43.861 130.846C43.532 130.517 43.106 130.352 42.583 130.352H39.645V133.939Z" fill="#272525"/>
<path d="M70.733 121.065V123.981H65.036V127.37H70.06V130.286H65.036V133.939H70.733V136.855H61.2V121.064H70.733V121.065Z" fill="#272525"/>
<path d="M88.362 136.856L82.777 121.11H86.858L90.762 133.113L94.664 121.11H98.747L93.162 136.856H88.362Z" fill="#272525"/>
<path d="M120.391 121.065V123.981H114.694V127.37H119.718V130.286H114.694V133.939H120.391V136.855H110.859V121.064H120.391V121.065Z" fill="#272525"/>
<path d="M137.797 130.735V136.855H133.961V121.109H140.174C141.998 121.109 143.418 121.582 144.435 122.524C145.452 123.466 145.96 124.601 145.96 125.934C145.96 126.843 145.683 127.736 145.13 128.603C144.577 129.467 143.672 130.08 142.416 130.442L146.274 136.855H141.787L138.243 130.735H137.797ZM137.797 124.027V127.819H140.175C140.758 127.819 141.218 127.646 141.554 127.301C141.89 126.96 142.059 126.507 142.059 125.944C142.059 125.385 141.887 124.924 141.543 124.566C141.199 124.208 140.743 124.027 140.175 124.027H137.797Z" fill="#272525"/>
<path d="M169.221 136.856L168.346 134.211H162.694L161.819 136.856H157.737L163.21 121.065H167.875L173.326 136.856H169.221ZM163.658 131.295H167.381L165.52 125.689L163.658 131.295Z" fill="#272525"/>
<path d="M186.907 134.713C185.344 133.199 184.563 131.27 184.563 128.938C184.563 126.606 185.344 124.681 186.907 123.163C188.469 121.645 190.38 120.888 192.638 120.888C194.387 120.888 195.942 121.349 197.304 122.278C198.664 123.203 199.613 124.491 200.152 126.136H195.576C194.978 124.984 194.021 124.408 192.705 124.408C191.39 124.408 190.353 124.819 189.598 125.642C188.843 126.465 188.466 127.563 188.466 128.937C188.466 130.315 188.843 131.413 189.598 132.236C190.353 133.059 191.367 133.47 192.638 133.47C193.55 133.47 194.294 133.24 194.87 132.787C195.446 132.33 195.831 131.722 196.025 130.957H191.585V128.041H200.153V130.957C199.868 132.392 199.084 133.729 197.798 134.971C197.184 135.572 196.425 136.057 195.521 136.431C194.616 136.805 193.655 136.99 192.638 136.99C190.38 136.991 188.469 136.235 186.907 134.713Z" fill="#272525"/>
<path d="M222.424 121.065V123.981H216.727V127.37H221.751V130.286H216.727V133.939H222.424V136.855H212.891V121.064H222.424V121.065Z" fill="#272525"/>
</svg>
