<svg width="391" height="193" viewBox="0 0 391 193" fill="none" xmlns="http://www.w3.org/2000/svg">
<path d="M253.444 95.9946C260.498 57.0864 234.675 19.8267 195.767 12.7726C156.858 5.71849 119.599 31.5413 112.545 70.4495C105.491 109.358 131.313 146.617 170.222 153.672C209.13 160.726 246.389 134.903 253.444 95.9946Z" fill="#EDC68C"/>
<path d="M27.0483 98.3078C27.4333 98.5098 27.8184 98.7147 28.2034 98.7887C31.1554 99.9177 33.4654 101.652 35.9034 103.367C39.3684 105.967 41.8073 109.607 43.0903 114.306C43.8603 117.537 43.3473 121.327 41.1653 125.484C40.5233 126.856 39.7533 128.373 38.7273 129.671C38.3423 130.237 37.7013 131.098 37.0593 131.699C34.6203 134.348 31.9263 136.263 28.9733 137.828C27.5613 138.795 26.0224 139.136 24.6104 139.204C23.4554 139.364 22.4283 139.634 21.2733 140.436C20.2463 141.094 19.3483 141.474 18.1933 142.019C15.4983 143.035 13.1874 143.483 10.8774 143.42C7.41235 143.387 4.07535 142.824 1.89435 140.818C-0.0306504 139.031 -0.544655 136.407 0.611345 132.651C1.50934 130.347 2.66435 128.005 4.33235 125.59C5.74435 123.34 7.41235 121.055 9.46535 118.972C9.85035 118.663 10.1074 118.114 10.3644 117.693C11.3904 115.624 11.9034 115.17 13.8284 115.159C14.5984 114.795 15.1113 113.567 16.1393 113.812C15.6263 114.139 15.2404 114.449 14.4704 114.941C15.1124 114.98 15.4974 115.054 15.7544 115.019C15.7544 115.661 15.7543 116.175 15.8823 116.798C16.0113 117.166 15.8824 117.567 15.4984 118.135C14.7284 119.268 14.0863 120.387 13.1873 121.664C11.9043 123.511 11.0063 125.175 10.7493 127.137C10.4923 128.328 10.4924 129.354 10.3644 130.656C10.2354 131.571 10.6204 132.159 11.5194 132.293C12.5454 132.534 13.8294 132.486 15.1124 132.05C17.4234 131.345 19.8614 130.493 22.1704 129.146C24.4814 127.799 26.9193 126.561 29.2293 125.084C30.8973 124.084 32.6933 122.805 34.2343 121.18C35.3893 120.121 35.7753 119.041 35.3893 118.323C34.4913 115.497 33.3354 113.091 30.8974 111.505C26.9184 108.848 22.2983 106.666 17.6783 104.611C14.8553 103.336 12.2894 101.894 9.84935 100.181C7.02635 98.3897 4.97334 95.8518 3.43234 93.1138C0.481344 88.6448 3.17635 81.5968 7.28235 76.0208C11.0054 70.8858 16.0093 67.1098 21.1433 63.5718C22.6833 62.7158 24.2233 62.1177 25.6353 61.2807C33.4643 57.3687 40.7793 56.0977 47.8383 55.6287C50.0203 55.5837 52.0743 55.6818 54.2553 55.6368C56.5663 55.5728 58.7474 55.7847 60.4164 56.8357C61.0584 57.2597 61.4423 57.7208 61.0583 58.7998C60.9293 59.0738 60.9294 59.4578 60.9294 59.7148C60.8014 60.3748 60.8013 61.0167 60.5443 61.6937C59.5173 64.0197 58.7464 66.3088 58.6194 68.5078C58.4904 69.4248 57.8494 70.7967 57.2074 71.9137C56.6934 73.0097 55.9243 73.8877 55.4103 74.8587C54.8973 75.8257 54.2553 76.5577 53.3573 77.1947C51.9453 78.0337 50.7903 78.8358 49.3793 79.4158C48.6093 79.9098 47.8383 80.0168 47.3253 79.7018C45.4003 79.1998 43.3464 79.0988 41.2934 79.1278C37.1864 79.1838 33.0804 79.1118 28.5884 79.8658C27.3054 80.1698 25.8933 80.4928 24.6093 81.0588C23.0693 81.5278 21.6573 82.1098 20.2453 82.5638C11.0053 86.1568 16.3954 92.0818 21.0154 94.7778C23.0704 95.7798 25.1233 97.0328 27.0483 98.3078Z" fill="black"/>
<path d="M101.874 97.1597C101.746 98.0747 100.462 101.335 99.8203 101.938C99.4353 102.119 99.3074 102.52 99.0504 102.687C98.5374 103.401 98.1523 103.964 97.6393 104.55C97.3823 104.844 96.9974 105.153 96.8694 105.556C96.4834 106.379 95.9703 106.837 95.3293 107.31C95.0733 107.472 94.8163 107.639 94.6873 107.91C93.9173 108.916 92.8913 109.831 92.1203 110.707C91.3503 111.456 90.5793 111.947 89.6823 112.328C88.5273 112.745 87.5003 112.889 86.4733 113.416C85.5743 113.926 84.5483 114.068 83.5213 114.467C83.1363 114.52 82.7513 114.574 82.3663 114.627C80.8263 114.329 79.2863 114.286 78.0033 113.438C77.8743 113.325 77.6173 113.234 77.3613 113.14C76.2063 112.788 75.0503 112.307 74.2803 111.388C73.2543 112.042 72.3553 112.682 71.5863 113.43C71.0723 113.757 70.6873 114.066 70.1743 114.524C70.0453 114.542 69.9173 114.686 69.9173 114.686C69.1473 115.821 68.1213 116.093 67.0933 116.619C65.2973 117.382 63.5003 117.633 61.8323 116.964C61.1913 116.668 60.5493 116.501 59.9073 116.333C56.1843 115.311 54.1313 112.771 53.7463 108.845C53.4893 106.829 53.8743 104.851 54.7723 102.928C55.6713 101.134 56.5703 99.3427 57.8533 97.7507C57.8533 97.6227 57.9803 97.4747 58.1093 97.3317C59.7783 94.5327 61.8313 91.8077 63.7573 89.2307C65.1683 87.4947 66.7083 85.9977 68.6333 84.5747C68.8903 84.4117 69.4033 84.2107 69.7883 84.1567C70.5583 83.9227 71.3283 83.6877 72.2273 83.5647C72.3543 83.5467 72.4833 83.5277 72.6123 83.5117C73.3823 83.7897 74.4083 83.6457 75.3073 83.7787C75.5633 83.8697 75.8203 83.9617 76.0773 83.9267C76.7193 83.9657 77.2323 83.8957 77.4893 84.3707C77.6173 84.4837 77.7453 84.4648 77.7453 84.4648C78.3873 84.3768 78.9003 84.9457 79.5413 84.8577C79.7983 84.8207 80.0553 84.9137 80.1833 85.0247C80.9533 85.6867 81.8523 86.2057 82.3653 87.0317C82.4943 87.3977 82.6223 87.6387 82.7503 88.0047C83.0073 89.1257 82.7503 89.9298 81.5953 90.7318C80.4403 91.4058 79.4143 92.3177 78.3873 93.2327C78.3873 93.2327 78.3873 93.2327 78.3873 93.3597C76.9753 94.9677 75.3073 96.4837 74.1523 98.3117C73.6383 99.0237 73.1253 99.6097 72.6123 100.194C71.4573 101.638 70.5583 103.174 69.5323 104.727C69.1463 105.422 68.6333 106.136 68.2493 106.704C67.9923 106.998 67.8633 107.272 67.7363 107.545C66.9663 109.065 66.4513 110.546 66.1953 111.996C66.0673 112.14 66.1953 112.253 66.1953 112.51C66.4513 112.343 66.5803 112.199 66.7083 112.051C67.9913 110.589 69.4033 109.11 70.9443 107.74C71.7133 106.991 72.3553 106.261 72.8693 105.292C73.1253 104.87 73.5113 104.432 73.8953 103.994C74.6653 102.988 75.4353 101.983 76.0773 100.868C76.9753 99.3317 77.8733 97.7927 78.7723 96.1287C79.9273 95.8407 80.8253 95.8427 81.5953 96.6347C81.8523 96.8567 82.1083 97.0788 82.3653 97.2968C83.2643 98.3298 83.3913 99.5947 83.5203 100.859C83.5203 101.116 83.3913 101.262 83.2643 101.538C82.7503 102.764 82.1083 104.138 81.4673 105.382C81.0823 106.332 80.9543 107.248 81.0823 108.13C81.3393 109.119 81.7243 110.222 82.2373 111.178C82.4943 111.53 82.8793 111.731 83.3923 111.659C84.2913 111.406 85.1903 111.155 86.0873 110.643C86.8573 110.152 87.7563 109.641 88.5263 109.02C89.4243 108.385 90.3233 107.745 91.3493 106.961C91.9913 106.229 92.7613 105.608 93.4033 104.878C95.0723 102.978 97.6393 98.3867 99.3073 96.4867C99.4353 96.3407 99.5643 96.3227 99.6913 96.1777C100.591 96.1827 101.233 96.6087 101.874 97.1597Z" fill="black"/>
<path d="M135.374 91.7387C135.374 92.5097 134.988 92.5637 135.117 93.1867C135.246 93.6807 133.834 97.5997 133.577 98.1497C132.808 100.309 131.909 102.489 131.139 104.649C129.984 107.119 128.83 109.334 127.674 111.677C127.161 112.646 121.13 121.183 120.488 121.788C118.819 123.172 115.995 126.903 114.456 128.143C113.429 128.927 109.578 130.874 108.681 131.127C107.012 131.487 105.216 131.865 103.675 131.694C100.98 131.682 97.0023 128.255 95.7193 125.868C95.0773 124.801 94.3073 123.881 93.9223 122.651C93.4093 121.053 93.0243 118.412 92.8963 116.506C92.8963 105.725 94.1794 104.006 97.2594 93.1817C97.5164 92.2477 97.6453 91.4607 97.9003 90.5267C98.0293 89.6097 98.4133 88.6577 98.6703 87.8527C99.0553 86.3867 99.4403 84.9217 99.8253 83.5847C100.467 80.6707 103.804 75.3297 100.724 75.1157C99.8253 75.1137 99.0553 75.3477 98.2863 74.8137C97.5163 74.4087 96.7463 74.1287 95.9753 73.7237C95.7193 73.5017 95.3334 73.2977 95.2054 72.6747C95.4624 72.5107 95.7193 72.3457 95.8463 72.3267C97.6443 71.6937 99.3114 71.0767 101.108 70.4427C102.263 70.0257 103.547 69.7167 104.831 69.4127C105.344 69.2127 105.857 68.8867 106.114 68.2077C106.499 67.1277 107.14 66.1407 107.397 64.9497C108.68 62.3317 109.578 59.6397 110.99 57.1347C112.273 54.9007 113.557 52.9287 115.226 51.1557C115.482 50.7367 115.868 50.2957 116.124 50.0037C116.637 49.5467 117.151 49.2207 117.793 49.2587C118.562 49.4087 119.333 48.9177 120.231 48.7917C120.359 48.7737 120.359 48.7737 120.488 48.6277C122.285 47.9937 122.926 48.6727 123.439 50.0137C124.081 51.2087 124.338 52.4567 124.338 53.9977C124.338 54.7667 124.466 55.3907 124.594 56.0157C124.723 56.5117 124.723 57.1527 124.594 57.8127C124.465 58.4707 124.338 59.1307 124.209 59.9187C123.952 60.9817 123.696 62.0437 123.439 63.1067C123.439 63.4937 123.439 63.7487 123.311 64.1517C123.697 64.3537 124.081 64.2997 124.594 64.2297C126.134 63.8887 127.802 63.5287 129.343 63.1847C131.525 62.8827 133.835 62.5617 136.017 62.2597C136.786 62.1527 137.556 62.3007 138.455 62.3047C138.198 62.7267 138.07 62.9997 137.942 63.1477C137.685 63.4397 137.3 63.7487 137.043 63.9127C136.144 64.4227 135.118 65.0787 134.219 65.5887C134.219 65.7167 134.092 65.7327 134.092 65.7327C132.68 66.0597 131.14 66.9147 129.6 66.9997C128.701 67.1227 127.803 67.3777 126.905 67.7607C126.391 68.0857 125.749 68.1737 125.236 68.3757C124.21 68.6467 123.311 68.8997 122.285 69.1697C121.772 69.3687 121.515 69.7907 121.258 70.3397C121.13 70.4857 121.13 70.6137 121.002 70.7587C119.462 75.3367 117.408 79.7297 115.74 84.1967C115.483 84.7457 115.227 85.2947 115.099 85.6977C114.457 87.0697 113.944 88.2967 113.559 89.7617C113.174 90.9717 112.533 92.2157 111.891 93.3297C111.377 94.3007 111.505 95.4357 110.864 96.4227C109.452 99.8287 107.784 109.816 108.041 114.657C108.168 116.693 108.683 118.546 109.324 120.383C109.58 120.988 110.093 121.304 110.479 121.761C110.607 121.745 110.735 121.856 110.992 121.821C112.147 121.661 114.457 121.467 115.612 120.538C116.382 119.917 120.232 116.301 121.002 115.553C122.927 113.361 127.29 108.007 128.574 105.262C129.729 102.92 130.37 100.007 131.526 97.7937C132.039 96.4387 133.323 93.4357 133.964 91.9347C134.604 91.9747 135.502 91.3357 135.374 91.7387ZM115.481 75.5057C116.764 72.1187 117.15 69.4987 112.914 72.7807C111.502 77.2127 110.989 80.2357 109.834 84.3757C107.01 95.4197 111.117 86.8907 112.914 81.8937C113.813 79.3287 114.326 77.9757 115.481 75.5057ZM119.46 60.1917C119.589 59.6617 119.717 59.0027 119.845 58.3427C119.974 57.2957 120.231 56.2347 120.359 55.1897C120.487 54.0177 120.359 52.8797 120.231 51.7427C120.102 51.2467 119.718 51.1727 119.461 51.4647C118.948 51.9217 118.562 52.2317 118.306 52.9087C117.793 54.0067 117.279 55.2327 117.023 56.4237C116.895 56.8267 116.637 57.2487 116.51 57.6497C116.253 58.2007 115.996 58.7477 115.74 59.4247C115.483 60.7447 115.227 62.1927 114.841 63.6567C114.328 67.0667 117.921 66.6947 118.691 64.2777C118.947 62.9597 119.203 61.6397 119.46 60.1917Z" fill="black"/>
<path d="M145.258 104.354C143.077 105.814 140.253 106.077 138.841 106.66C137.686 106.82 134.735 106.588 133.836 106.197C130.628 104.718 130.499 103.838 129.857 99.6917C129.472 98.7187 129.729 96.3727 130.499 94.2127C131.141 91.1707 138.07 79.5567 139.226 76.7007C139.868 75.1997 140.509 73.6977 141.536 72.0157C141.922 71.0657 142.563 70.7177 143.205 70.2447C144.103 69.7327 145.001 69.6087 145.643 68.8767C147.568 67.5857 146.156 66.8817 147.44 66.5757C148.723 66.3967 149.622 66.7857 150.264 67.5957C150.777 67.6527 150.777 68.2947 151.29 68.7347C151.676 68.9377 151.547 69.4707 151.547 69.9827C150.777 73.2997 147.953 79.7227 147.184 82.9107C146.541 83.8977 146.285 87.5277 146.028 88.3317C145.772 89.6517 145.515 90.8427 144.873 92.2147C144.616 93.2777 143.974 95.2917 144.616 95.7177C145.13 96.2877 145.386 98.4347 146.157 98.0707C149.237 95.9747 153.344 95.2757 155.012 92.9907C156.039 91.4357 156.681 91.9867 157.707 90.5617C158.606 89.5377 158.863 88.7337 159.247 88.0387C160.017 86.2637 160.146 86.7577 160.788 85.2577C161.557 83.4827 162.713 81.7817 163.739 80.2267C164.125 79.0197 164.638 78.1757 165.408 77.0427C166.691 76.4817 166.563 76.6247 167.076 76.6827C169.001 76.2877 167.333 76.6457 168.488 77.1267C168.744 77.6057 168.488 78.1547 168.872 78.3587C167.974 80.9217 167.846 83.5067 166.691 86.4907C166.305 87.4427 166.562 86.5067 165.792 87.7697C165.921 88.5227 165.407 89.7487 164.893 90.8467C164.38 92.0747 164.508 93.4667 163.738 94.6017C162.712 99.1077 162.198 101.49 162.198 102.002C161.813 103.726 166.305 104.256 170.797 102.22C173.749 100.527 179.011 94.7907 181.449 90.4717C182.348 88.8097 183.117 87.1627 184.529 84.9107C185.812 82.4237 186.84 86.1307 186.325 87.1007C185.94 87.7957 185.683 88.3457 185.556 88.7487C184.529 89.6597 183.374 93.9277 182.475 94.8237C182.219 95.1137 182.347 95.4837 181.706 95.8277C180.037 98.2427 176.7 102.3 174.133 104.709C172.978 105.126 172.85 105.529 171.695 106.204C170.796 107.226 170.54 107.39 169.385 108.193C168.487 108.701 168.359 108.849 167.974 109.287C166.947 109.172 166.691 109.593 166.305 109.904C163.867 111.654 153.471 113.61 152.701 109.355C152.059 105.464 151.418 103.372 152.573 98.8467C152.573 98.4617 152.573 98.4617 152.573 98.3347C150.777 100.381 147.441 102.641 145.258 104.354Z" fill="black"/>
<path d="M197.755 87.5697C198.268 85.5727 202.76 75.8367 203.658 74.1727C204.428 72.9097 205.198 71.6467 205.839 70.2757C206.609 69.1427 207.379 67.8797 207.893 66.7817C208.406 65.8127 209.176 65.1937 209.947 64.9577C210.846 64.8327 211.616 64.5978 212.385 64.4908C213.925 64.2768 214.824 65.3057 215.593 66.8677C215.593 66.9957 215.593 67.1247 215.593 67.3797C215.85 69.0147 216.235 70.7567 216.492 72.5197C216.749 74.1507 216.62 75.9667 216.62 77.6347C216.62 78.7907 216.748 79.9277 216.62 81.1007C217.262 81.3967 217.133 81.9278 217.262 81.7838C217.519 81.4898 218.417 81.7507 218.674 81.4567C218.803 81.1827 219.058 81.0207 219.187 80.7447C219.7 80.2887 220.213 79.8317 220.728 79.1197C221.113 78.4247 221.497 78.3717 222.011 78.9407C222.011 79.3257 221.882 79.7287 221.497 80.0387C221.37 80.1847 221.241 80.4587 221.112 80.7337C220.984 81.1347 220.727 81.5567 220.342 81.7397C220.213 81.8837 220.086 82.0317 219.957 82.1777C219.828 82.3237 219.571 82.4878 219.571 82.6158C219.443 82.7638 219.315 82.7797 219.186 82.9257C218.673 83.5117 218.287 83.6907 217.774 83.7627C217.646 83.7817 217.132 83.9807 216.619 84.4377C216.233 84.7487 215.849 84.8017 215.592 84.5797C214.694 84.1907 213.796 84.1887 212.898 83.9277C211.358 83.7547 210.203 82.5047 209.561 80.7977C208.791 78.5927 208.791 76.0267 209.175 73.5357C209.432 72.3427 209.432 71.3167 209.561 70.2737C209.69 69.4837 209.817 68.6967 209.946 67.9107C210.203 67.3597 210.203 66.9747 210.074 66.4797C209.946 66.4977 209.69 66.4057 209.69 66.6607C209.561 66.8087 209.304 67.1007 209.176 67.3747C208.663 68.4727 208.021 69.5897 207.38 70.8337C206.995 71.5287 206.738 72.3327 206.61 73.2507C206.739 73.7467 206.354 74.1847 206.225 74.5877C205.07 76.9297 204.043 79.1247 203.273 81.6707C202.631 83.5567 201.734 85.2227 200.963 87.1247C199.808 89.9817 198.396 92.6157 197.498 95.5647C197.242 96.4967 196.728 97.5967 196.343 98.6767C196.086 99.4807 192.878 106.089 192.108 106.838C192.108 107.095 191.722 107.276 191.465 107.568C189.926 109.964 188.129 110.084 186.076 109.857C185.819 110.149 185.563 109.929 185.306 109.707C183.252 109.479 182.226 107.696 181.712 105.201C181.327 103.072 181.327 100.763 181.327 98.5807C181.456 95.2237 181.584 91.8697 181.84 88.4967C182.482 84.6877 181.969 85.0127 182.995 81.4057C183.894 76.2767 183.381 77.1177 185.177 71.8627C185.306 70.9457 185.819 70.2317 186.076 69.2977C186.974 66.8627 187.744 64.7027 188.771 62.5067C189.284 60.7667 189.797 60.4397 191.08 60.5177C191.979 60.3927 193.134 60.4907 194.288 60.5857C195.058 60.6087 195.828 60.7587 196.855 61.5137C197.754 63.0577 199.037 64.0327 200.321 65.3947C201.476 67.2887 201.733 68.7937 200.963 71.3387C200.321 73.9957 200.064 72.1057 199.423 74.8907C197.755 80.5137 194.675 85.1757 193.263 90.2497C191.338 96.6747 197.241 89.8217 197.755 87.5697Z" fill="black"/>
<path d="M271.425 102.625C271.681 102.335 272.067 102.024 272.323 101.605C273.863 99.3357 271.938 101.529 273.35 99.1487C273.863 98.0527 274.376 97.0817 275.018 96.0947C276.301 93.9907 276.173 92.3417 278.484 87.5287C281.564 82.8647 283.617 78.0867 286.184 73.3667C287.724 70.4587 287.21 68.6057 289.649 70.0617C291.188 71.0037 289.136 70.6477 289.136 72.9577C290.034 72.8327 287.596 75.4837 287.853 75.1897C288.622 76.1087 288.109 76.9507 287.596 77.6637C286.441 78.5957 287.853 81.3487 285.799 80.9937C284.13 83.7927 282.462 84.6647 281.307 87.3937C280.793 89.5187 279.638 87.8817 281.307 89.3187L280.151 90.8897C277.841 94.2917 278.098 94.5137 277.713 96.4927C277.456 96.6547 277.328 96.8027 277.328 96.9307C276.686 97.9177 276.172 98.7587 275.531 99.6187C275.146 100.057 274.889 100.608 274.762 101.137C274.376 102.347 273.863 103.445 273.222 104.559C272.709 105.402 272.196 106.242 271.682 106.955C270.913 107.961 270.143 108.966 269.115 109.75C268.473 110.61 267.319 111.412 266.42 112.177C264.88 113.162 263.726 114.221 262.185 115.077C262.056 115.223 261.928 115.626 261.672 115.918C260.516 116.078 259.49 116.093 258.206 115.758C255.639 115.088 255.511 115.62 253.33 113.354C251.404 112.21 250.12 110.464 248.966 108.7C248.324 107.375 247.426 106.088 247.17 104.457C247.041 104.216 247.041 103.961 246.785 103.869C246.271 103.295 246.271 102.913 246.271 102.144C246.4 101.227 245.887 100.272 245.758 99.2597C245.502 98.1407 245.245 97.0217 245.116 95.7557C244.987 95.1327 244.86 94.3817 244.987 93.7217C244.86 93.4837 244.603 93.3887 244.603 93.1337C244.346 93.4237 244.09 93.7177 243.833 94.0097C243.191 94.8677 242.807 95.8197 242.55 96.8847C242.037 99.2647 240.754 100.984 238.571 101.928C237.929 102.276 237.416 102.473 236.903 103.059C236.133 103.935 234.721 104.388 233.566 104.291C232.025 104.12 230.229 103.855 228.689 103.17C226.379 102.337 224.839 100.753 223.813 98.5877C223.043 97.2817 222.658 95.7947 222.786 94.2357C222.786 93.7237 222.658 93.3577 222.53 92.8597C222.53 92.3457 222.401 91.8517 222.53 91.4487C222.53 89.7787 222.53 87.9827 222.915 86.3897C223.685 83.2017 224.327 80.0327 225.867 77.1247C227.535 74.0687 229.332 70.8668 231.771 68.0898C234.209 65.0558 237.417 62.6847 241.01 61.0317C241.652 60.5567 242.55 60.4327 243.321 60.1987C243.706 60.1457 243.963 60.2357 244.347 60.3117C245.117 60.4597 245.888 60.7397 246.529 60.9057C251.149 66.5537 250.25 56.5397 252.175 52.6787C252.432 52.1297 252.561 51.4687 252.817 50.9227C253.203 50.0977 253.459 49.1617 253.716 48.2287C254.229 47.0027 254.742 45.7767 255.128 44.5677C255.513 43.8727 255.641 43.2128 255.898 42.4088C256.924 40.4668 257.951 38.4007 258.849 36.3497C259.748 34.8157 260.646 33.2767 261.801 31.9607C262.956 30.9037 264.111 29.7148 265.137 28.5468C265.523 28.1088 266.164 27.6357 266.677 27.1787C267.832 26.3747 268.859 25.5907 269.885 24.6777C271.425 23.3077 273.222 23.3157 274.89 23.9827C276.046 24.4637 276.815 25.3858 278.098 25.9778C278.355 26.1998 278.484 26.5657 278.612 26.9317C278.741 28.3257 278.997 29.7017 278.741 31.1477C278.612 32.0647 278.484 32.9827 278.355 34.0267C278.355 35.0547 278.355 36.2067 277.713 37.3237C277.584 37.5967 277.713 37.8377 277.584 38.1117C277.455 38.8997 277.199 39.7077 276.814 40.4027C276.172 41.3897 275.659 42.4877 275.146 43.7137C274.761 44.7937 274.376 45.8737 273.863 46.9717C273.606 47.7777 273.35 48.4547 273.221 49.2427C272.836 50.4517 272.322 51.6797 271.681 52.6647C270.655 53.8347 270.013 55.0787 269.627 56.4157C269.242 57.4977 268.472 58.3738 267.702 58.9948C267.06 59.7248 266.419 60.4547 266.034 61.2777C265.521 63.1467 264.237 64.8647 263.083 66.4357C262.056 67.8627 262.697 68.1597 262.056 69.5327C261.543 69.9897 261.414 70.5178 261.286 71.0508C261.03 72.1118 260.773 73.3047 260.644 74.3477C260.515 75.3927 260.259 76.3267 259.874 77.5357C260.003 78.2867 259.746 79.0947 259.746 79.9937C259.874 80.2307 259.746 80.6358 259.489 80.9258C259.489 81.5678 259.36 82.2298 259.489 82.8528C259.746 83.7148 259.617 84.6297 259.489 85.4197C259.489 86.5737 259.489 87.6017 259.489 88.7557C259.489 89.0127 259.489 89.1407 259.617 89.2517C260.002 89.9697 259.746 90.7757 259.873 91.5267C260.002 93.3057 260.515 94.9037 261.029 96.4997C261.542 96.8147 261.671 97.1828 261.799 97.6758C262.055 98.0278 262.312 98.5047 262.184 98.7777C262.055 99.5677 262.441 100.026 262.826 100.357C263.725 102.029 265.008 103.008 266.419 104.094C266.034 104.275 265.65 104.201 265.393 104.62C265.265 104.381 265.393 103.978 265.009 103.777C265.009 103.649 264.88 103.536 264.495 103.847C265.009 104.16 265.136 104.273 265.393 104.62C266.035 104.916 266.549 105.36 267.319 105.381C267.319 105.253 267.447 104.85 267.576 104.702L267.447 104.721C270.013 103.978 270.142 103.318 271.425 102.625ZM238.057 86.0807C237.8 86.5027 237.672 86.9057 237.415 87.3247C236.773 88.5707 236.26 89.7947 235.619 91.1667C235.105 93.5507 234.849 96.0247 236.132 98.2847C236.132 98.5417 236.389 98.6347 236.517 98.7457C237.544 98.2187 238.186 97.3577 238.828 96.6277C239.854 95.2027 241.138 93.7398 242.292 92.2968C243.062 91.4188 243.704 90.4337 244.217 89.3327C244.217 89.0777 244.345 88.8027 244.345 88.5447C244.474 87.6297 244.474 86.8607 244.602 85.9427C244.474 85.0627 244.474 84.1637 244.602 83.2467C246.784 75.7587 244.986 73.1837 241.008 80.4107C239.597 82.1457 239.083 84.0137 238.057 86.0807ZM252.687 110.489C252.559 110.38 252.687 110.104 252.687 109.975C252.559 109.866 252.431 109.757 252.302 109.644L252.045 109.811C252.045 109.938 252.174 110.048 252.431 110.142C252.431 110.269 252.559 110.381 252.559 110.381C252.815 110.731 252.815 110.988 253.072 111.335C254.484 112.808 255.896 113.896 258.077 114.233C258.205 114.346 258.59 114.293 259.104 114.221C258.718 113.888 258.59 113.651 258.205 113.448C256.665 112.506 254.997 111.453 253.456 110.511C253.2 110.42 258.975 109.234 258.846 109.507L252.687 110.489ZM257.051 112.067C257.051 112.067 257.051 112.067 257.18 112.176C257.051 112.067 257.18 112.048 257.18 112.048C257.18 112.048 257.18 112.048 257.18 111.92C257.18 111.921 257.051 111.939 257.051 112.067ZM258.463 100.574L258.206 100.611C258.591 100.687 258.591 100.687 258.591 100.815C258.591 100.687 258.591 100.687 258.591 100.687C258.463 100.574 258.463 100.574 258.463 100.574ZM258.847 101.547V101.42L258.718 101.566L258.847 101.547ZM259.361 102.248L259.232 102.392C259.361 102.505 259.361 102.505 259.361 102.633C259.361 102.633 259.49 102.615 259.618 102.596C259.618 102.468 259.361 102.376 259.361 102.248ZM261.543 98.8627C261.672 98.8467 261.672 98.8467 261.8 98.8277C261.672 98.7187 261.672 98.5887 261.543 98.4797C261.286 97.6157 261.03 97.0087 260.644 96.1637C260.259 95.4477 260.259 94.6767 259.361 94.0327C259.747 95.6467 260.516 96.9527 261.286 98.1297C261.286 98.2567 261.286 98.5137 261.543 98.4797C261.671 98.5887 261.671 98.7187 261.543 98.8627ZM263.981 104.558C263.852 104.318 263.339 104.005 262.955 103.674C262.569 102.701 261.928 101.891 261.03 101.117C260.901 101.008 260.901 100.751 260.388 101.08C261.414 102.219 262.185 103.396 263.211 104.408C263.211 104.795 263.597 104.869 263.981 105.072C263.981 104.815 263.981 104.687 263.981 104.558ZM268.088 54.3177C269.114 52.7627 270.27 51.1897 271.168 49.3977C272.067 47.0897 273.093 44.8937 274.248 42.5527C274.505 41.8717 274.634 41.3437 274.634 40.5727C274.634 40.0607 274.634 39.4187 274.89 38.8697C276.173 35.7397 276.302 32.3827 276.43 29.0307C276.43 28.2577 276.302 27.5067 276.173 26.7537C275.66 25.6697 275.147 25.6127 274.248 26.2517C273.992 26.5437 273.606 26.7247 273.479 27.1277C273.093 28.3367 272.196 29.3597 271.554 30.3487C271.425 30.7497 271.168 31.1717 271.168 31.5557C271.297 32.4357 270.912 33.2607 270.398 34.1017C270.013 35.1817 269.371 36.0407 268.73 36.7717C268.088 37.2467 267.831 37.6667 267.831 38.3077C267.959 39.0607 267.831 39.7207 267.575 40.5247C267.189 41.4767 266.805 42.4287 266.676 43.3467C265.906 46.5327 264.366 49.1857 263.981 52.3197C263.083 56.6797 260.131 65.4327 265.521 59.0367C266.419 57.3717 267.061 55.8707 268.088 54.3177Z" fill="black"/>
<path d="M334.061 64.9237C333.933 65.8387 332.649 69.0968 332.008 69.7018C331.622 69.8828 331.494 70.2837 331.238 70.4507C330.725 71.1627 330.339 71.7278 329.826 72.3138C329.569 72.6058 329.184 72.9157 329.056 73.3197C328.671 74.1427 328.158 74.5987 327.517 75.0737C327.26 75.2367 327.003 75.4007 326.875 75.6747C326.105 76.6807 325.077 77.5937 324.308 78.4697C323.538 79.2187 322.768 79.7097 321.869 80.0927C320.714 80.5107 319.688 80.6527 318.661 81.1807C317.763 81.6887 316.736 81.8328 315.71 82.2318C315.324 82.2848 314.94 82.3387 314.554 82.3917C313.014 82.0937 311.474 82.0507 310.191 81.2007C310.062 81.0897 309.806 80.9967 309.549 80.9047C308.394 80.5527 307.239 80.0717 306.469 79.1527C305.442 79.8067 304.544 80.4467 303.774 81.1947C303.261 81.5217 302.875 81.8297 302.362 82.2887C302.234 82.3067 302.106 82.4518 302.106 82.4518C301.336 83.5848 300.309 83.8587 299.282 84.3847C297.486 85.1477 295.688 85.3967 294.02 84.7307C293.378 84.4327 292.737 84.2677 292.095 84.0997C288.373 83.0757 286.32 80.5377 285.934 76.6117C285.678 74.5937 286.062 72.6157 286.961 70.6947C287.859 68.9017 288.757 67.1077 290.041 65.5177C290.041 65.3907 290.17 65.2427 290.298 65.0967C291.966 62.2997 294.019 59.5747 295.944 56.9977C297.356 55.2617 298.896 53.7647 300.821 52.3417C301.077 52.1797 301.59 51.9777 301.976 51.9247C302.746 51.6897 303.515 51.4557 304.414 51.3297C304.543 51.3137 304.671 51.2947 304.799 51.2767C305.569 51.5547 306.596 51.4127 307.494 51.5437C307.751 51.6357 308.008 51.7287 308.264 51.6917C308.906 51.7327 309.419 51.6607 309.676 52.1377C309.805 52.2487 309.933 52.2327 309.933 52.2327C310.575 52.1427 311.088 52.7137 311.729 52.6237C311.985 52.5887 312.242 52.6807 312.371 52.7927C313.141 53.4547 314.039 53.9727 314.552 54.7997C314.68 55.1657 314.809 55.4047 314.938 55.7727C315.194 56.8937 314.938 57.6977 313.783 58.4997C312.627 59.1747 311.601 60.0857 310.575 60.9987C310.575 60.9987 310.575 60.9987 310.575 61.1257C309.163 62.7367 307.494 64.2497 306.339 66.0787C305.826 66.7917 305.313 67.3787 304.799 67.9607C303.644 69.4047 302.747 70.9427 301.719 72.4957C301.335 73.1907 300.821 73.9047 300.436 74.4727C300.18 74.7647 300.052 75.0408 299.923 75.3138C299.153 76.8318 298.64 78.3147 298.383 79.7647C298.255 79.9087 298.383 80.0197 298.383 80.2787C298.64 80.1117 298.769 79.9657 298.897 79.8197C300.18 78.3577 301.591 76.8787 303.132 75.5087C303.902 74.7597 304.544 74.0297 305.057 73.0617C305.314 72.6397 305.699 72.2017 306.083 71.7637C306.853 70.7577 307.623 69.7527 308.265 68.6357C309.164 67.1017 310.061 65.5637 310.96 63.8997C312.115 63.6117 313.014 63.6137 313.784 64.4057C314.04 64.6277 314.297 64.8477 314.553 65.0677C315.452 66.0987 315.58 67.3627 315.709 68.6297C315.709 68.8867 315.581 69.0327 315.452 69.3067C314.939 70.5347 314.297 71.9067 313.656 73.1507C313.27 74.1007 313.143 75.0177 313.27 75.8987C313.527 76.8897 313.912 77.9927 314.426 78.9467C314.682 79.2987 315.068 79.4997 315.581 79.4287C316.48 79.1777 317.377 78.9247 318.276 78.4147C319.046 77.9227 319.944 77.4127 320.714 76.7917C321.613 76.1537 322.51 75.5167 323.538 74.7307C324.18 74.0007 324.95 73.3797 325.592 72.6497C327.26 70.7497 329.826 66.1587 331.494 64.2567C331.623 64.1127 331.751 64.0937 331.88 63.9477C332.777 63.9467 333.42 64.3707 334.061 64.9237Z" fill="black"/>
<path d="M385.913 58.8797C386.812 57.6007 387.581 56.3377 388.48 54.7997C388.737 54.3797 388.993 53.9607 389.25 53.4097C389.25 53.4097 389.25 53.4097 389.379 53.2657C389.379 53.3927 389.379 53.5227 389.379 53.7797C388.993 55.5007 391.175 54.8117 390.021 56.7677C389.507 57.4817 387.71 59.9127 387.454 60.7207C387.326 61.6357 385.272 63.5897 384.63 64.4477C384.117 65.1617 383.731 65.9858 383.347 66.9388C382.577 68.0718 381.935 69.0587 381.036 70.2107C380.267 71.0867 379.753 72.0577 379.24 72.8987C378.855 73.8507 378.214 74.8368 377.444 75.7148C375.647 78.1478 375.519 78.5487 373.594 80.9987C372.695 82.0227 370.899 85.9917 369.872 86.9077C369.358 87.4917 368.716 88.2238 368.332 89.0468C367.433 90.0688 357.808 95.6407 357.038 96.2617C356.653 96.6997 356.525 96.9757 356.268 97.1377C355.113 97.9397 354.343 99.0747 354.087 100.394C353.06 103.103 351.649 105.739 350.237 108.372C349.21 109.927 348.439 111.445 347.67 112.965C347.028 114.723 346.129 116.002 344.846 117.335C343.82 118.76 342.279 119.873 341.252 121.557C338.942 123.933 336.889 125.627 334.194 127.285C332.269 128.578 329.061 128.897 327.007 129.181C319.564 131.884 309.553 126.984 308.013 120.012C307.886 118.873 308.912 117.063 310.195 116.627C311.607 116.047 313.147 115.576 314.431 115.14C319.051 113.984 323.799 111.915 328.548 109.2C331.756 107.602 334.323 106.345 337.789 104.196C338.815 103.54 340.356 101.913 340.997 100.671C341.895 98.6197 344.59 92.3417 345.617 90.4017C354.985 71.3897 351.777 79.5367 340.74 84.6617C339.201 84.6187 334.965 82.6397 334.067 81.3547C333.168 79.9377 327.008 72.4497 327.649 70.4357C328.291 68.0377 328.548 69.1567 328.419 65.8367C328.805 62.0607 329.959 60.2327 330.729 55.7607C330.985 54.5697 332.397 51.6787 332.397 50.1377C333.423 48.0707 334.451 43.4377 335.734 41.7177C336.504 40.0707 337.146 38.8258 338.172 37.2708C338.558 36.7028 338.814 36.2837 339.584 35.5347C339.968 35.7387 340.483 36.0527 340.867 36.2567C341.509 37.3197 344.204 38.4857 345.616 39.1897C346.001 39.5207 346.386 39.8537 346.771 40.3127C347.028 40.6647 347.156 41.0307 347.284 41.1397C349.08 42.1747 349.722 44.0107 349.979 45.9007C350.364 47.3857 350.107 48.5787 349.594 50.0597C348.953 51.0487 348.567 52.3857 347.669 53.7927C347.027 55.4237 346 57.3627 345.102 59.1567C344.46 60.9127 343.048 62.6487 342.021 64.5907C341.508 65.3027 341.123 66.2547 340.353 67.3877C325.08 92.7397 358.32 60.0167 361.272 54.9867C363.197 51.7677 361.914 53.4877 363.581 50.1737C364.736 48.8577 365.635 47.3207 366.661 45.7657C367.047 44.9427 367.303 44.2667 367.944 43.7917C368.587 42.9317 368.843 42.8967 369.484 43.0657C370.511 43.4357 372.051 46.5577 371.409 48.4457C371.409 48.9577 371.153 49.6347 370.639 50.0927C370.383 50.6397 368.971 53.4018 368.843 54.0638C368.843 55.3468 368.201 56.3317 367.817 57.4137C367.303 58.5117 364.609 64.6617 363.838 67.9767C363.325 70.1017 358.961 82.1307 358.705 83.9627C358.576 90.3977 375.26 72.0387 378.982 67.7997C381.549 64.7467 383.73 61.8777 385.913 58.8797ZM332.011 119.113C337.016 113.412 340.609 108.68 327.647 115.355C324.696 116.535 321.743 117.459 318.792 118.382C317.766 118.653 316.995 118.888 316.097 119.27C310.834 125.135 325.594 129.246 332.011 119.113Z" fill="black"/>
<path d="M154.721 190.88C153.609 189.8 153.054 188.431 153.054 186.771C153.054 185.111 153.609 183.742 154.721 182.662C155.833 181.582 157.192 181.043 158.798 181.043C160.042 181.043 161.149 181.372 162.117 182.032C163.085 182.692 163.76 183.605 164.143 184.776H160.888C160.462 183.957 159.781 183.548 158.846 183.548C157.909 183.548 157.173 183.84 156.635 184.426C156.098 185.01 155.83 185.791 155.83 186.77C155.83 187.749 156.098 188.531 156.635 189.117C157.173 189.701 157.909 189.993 158.846 189.993C159.782 189.993 160.463 189.584 160.888 188.765H164.143C163.76 189.935 163.085 190.85 162.117 191.511C161.148 192.169 160.042 192.5 158.798 192.5C157.192 192.5 155.833 191.959 154.721 190.88Z" fill="#272525"/>
<path d="M180.325 192.404L179.703 190.52H175.681L175.059 192.404H172.155L176.048 181.171H179.367L183.245 192.404H180.325ZM176.367 188.447H179.016L177.692 184.457L176.367 188.447Z" fill="#272525"/>
<path d="M191.894 192.404V181.201H199.186V183.276H194.622V185.686H198.037V187.759H194.622V192.403H191.894V192.404Z" fill="#272525"/>
<path d="M215.16 181.17V183.243H211.106V185.654H214.68V187.729H211.106V190.329H215.16V192.404H208.378V181.171H215.16V181.17Z" fill="#272525"/>
</svg>
